<svg width="146" height="32" viewBox="88 456 146 32" fill="none" xmlns="http://www.w3.org/2000/svg">
  <path fill-rule="evenodd" clip-rule="evenodd" d="M93.2928 464.053C95.7229 460.784 99.6141 458.667 104 458.667C108.412 458.667 112.323 460.809 114.75 464.111C114.647 464.217 114.552 464.327 114.467 464.437C114.023 465.013 113.688 465.754 113.42 466.507C112.881 468.022 112.469 470 112.088 471.853L112.054 472.019C111.674 473.868 111.32 475.588 110.893 476.865C110.701 477.438 110.519 477.844 110.357 478.104C110.189 477.842 109.998 477.431 109.795 476.85C109.338 475.536 108.954 473.75 108.546 471.843L108.533 471.78C108.141 469.948 107.726 468.004 107.208 466.516C106.948 465.769 106.629 465.035 106.211 464.464C105.801 463.905 105.119 463.273 104.121 463.273C103.13 463.273 102.444 463.898 102.029 464.451C101.603 465.018 101.271 465.749 100.998 466.497C100.447 468.003 99.9971 469.973 99.5782 471.828L99.5349 472.019C99.1201 473.857 98.7324 475.575 98.2922 476.854C98.1242 477.343 97.9656 477.714 97.8221 477.98C97.6818 477.715 97.5272 477.346 97.3638 476.862C96.9415 475.61 96.5716 473.94 96.1743 472.146L96.1048 471.833C95.6931 469.976 95.2465 468.003 94.6881 466.492C94.4107 465.742 94.0714 465.007 93.6322 464.438C93.5328 464.309 93.4198 464.178 93.2928 464.053ZM91.8221 466.563C91.9379 466.791 92.0603 467.074 92.1869 467.417C92.6702 468.724 93.0797 470.509 93.5013 472.41L93.5834 472.78C93.9673 474.515 94.3666 476.32 94.837 477.714C95.0872 478.456 95.3893 479.182 95.7779 479.746C96.1453 480.28 96.8045 480.97 97.8182 480.97C98.8289 480.97 99.4897 480.284 99.8596 479.752C100.252 479.189 100.559 478.464 100.814 477.722C101.303 476.3 101.72 474.453 102.118 472.685L102.179 472.415C102.609 470.512 103.022 468.725 103.502 467.412C103.725 466.804 103.933 466.381 104.114 466.118C104.286 466.379 104.482 466.795 104.69 467.393C105.147 468.706 105.531 470.493 105.939 472.4L105.952 472.462C106.343 474.294 106.759 476.238 107.277 477.726C107.537 478.474 107.856 479.208 108.274 479.778C108.684 480.338 109.366 480.97 110.363 480.97C111.366 480.97 112.046 480.332 112.451 479.768C112.862 479.194 113.172 478.458 113.421 477.711C113.902 476.277 114.284 474.417 114.647 472.647L114.7 472.39C115.092 470.485 115.468 468.706 115.932 467.402C116.033 467.118 116.132 466.877 116.227 466.674C116.939 468.305 117.333 470.106 117.333 472C117.333 479.364 111.364 485.333 104 485.333C96.6362 485.333 90.6667 479.364 90.6667 472C90.6667 470.063 91.0796 468.223 91.8221 466.563ZM104 456C95.1635 456 88 463.163 88 472C88 480.837 95.1635 488 104 488C112.837 488 120 480.837 120 472C120 463.163 112.837 456 104 456ZM104.303 465.897C104.304 465.895 104.305 465.895 104.305 465.895C104.305 465.895 104.302 465.896 104.295 465.901C104.299 465.899 104.301 465.898 104.303 465.897ZM103.936 465.897C103.93 465.893 103.927 465.89 103.927 465.89C103.927 465.89 103.93 465.892 103.936 465.897ZM110.161 478.357C110.161 478.357 110.164 478.354 110.169 478.35C110.164 478.355 110.161 478.357 110.161 478.357ZM110.548 478.346C110.555 478.35 110.558 478.352 110.558 478.353C110.558 478.353 110.555 478.351 110.548 478.346ZM97.5449 478.381C97.5449 478.38 97.5487 478.376 97.5564 478.371C97.5488 478.378 97.5449 478.381 97.5449 478.381ZM98.085 478.374C98.0926 478.379 98.0964 478.383 98.0964 478.383C98.0964 478.383 98.0925 478.381 98.085 478.374Z" fill="#FF8F50"/>
  <path d="M128.835 481.472L124.955 468.2H128.353L130.654 477.753L133.33 468.2H137.13L139.806 477.753L142.133 468.2H145.532L141.625 481.472H138.066L135.23 471.545L132.394 481.472H128.835Z" fill="#622F60"/>
  <path d="M150.518 481.794C149.377 481.794 148.44 481.615 147.709 481.258C146.978 480.884 146.433 480.393 146.077 479.786C145.72 479.18 145.542 478.511 145.542 477.78C145.542 476.549 146.023 475.55 146.986 474.783C147.95 474.016 149.395 473.632 151.321 473.632H154.693V473.311C154.693 472.401 154.434 471.732 153.917 471.304C153.4 470.876 152.757 470.662 151.99 470.662C151.295 470.662 150.688 470.832 150.171 471.171C149.653 471.492 149.332 471.973 149.207 472.615H145.862C145.952 471.652 146.273 470.814 146.826 470.1C147.397 469.387 148.128 468.843 149.02 468.468C149.912 468.076 150.911 467.879 152.017 467.879C153.908 467.879 155.397 468.352 156.486 469.297C157.574 470.243 158.118 471.581 158.118 473.311V481.472H155.201L154.88 479.332C154.488 480.045 153.935 480.634 153.221 481.098C152.525 481.562 151.625 481.794 150.518 481.794ZM151.295 479.118C152.276 479.118 153.034 478.796 153.569 478.154C154.122 477.512 154.47 476.718 154.613 475.773H151.696C150.786 475.773 150.135 475.942 149.743 476.281C149.35 476.602 149.154 477.004 149.154 477.485C149.154 478.003 149.35 478.404 149.743 478.689C150.135 478.975 150.652 479.118 151.295 479.118Z" fill="#622F60"/>
  <path d="M163.509 481.472L158.64 468.2H162.225L165.597 478.235L168.968 468.2H172.554L167.657 481.472H163.509Z" fill="#622F60"/>
  <path d="M179.439 481.794C178.101 481.794 176.915 481.508 175.88 480.937C174.846 480.366 174.034 479.564 173.445 478.529C172.856 477.494 172.562 476.299 172.562 474.943C172.562 473.57 172.848 472.348 173.418 471.278C174.007 470.207 174.81 469.378 175.827 468.789C176.861 468.183 178.074 467.879 179.466 467.879C180.768 467.879 181.919 468.165 182.918 468.736C183.916 469.306 184.693 470.091 185.246 471.09C185.816 472.071 186.102 473.168 186.102 474.381C186.102 474.578 186.093 474.783 186.075 474.997C186.075 475.211 186.066 475.434 186.048 475.666H175.961C176.032 476.7 176.389 477.512 177.031 478.101C177.691 478.689 178.485 478.984 179.412 478.984C180.108 478.984 180.688 478.832 181.152 478.529C181.633 478.208 181.99 477.798 182.222 477.298H185.701C185.451 478.137 185.031 478.904 184.443 479.599C183.872 480.277 183.158 480.812 182.302 481.205C181.464 481.597 180.509 481.794 179.439 481.794ZM179.466 470.662C178.628 470.662 177.887 470.903 177.245 471.385C176.603 471.848 176.192 472.562 176.014 473.525H182.623C182.569 472.651 182.249 471.955 181.66 471.438C181.071 470.921 180.34 470.662 179.466 470.662Z" fill="#622F60"/>
  <path d="M187.912 481.472V462.207H191.337V481.472H187.912Z" fill="#622F60"/>
  <path d="M200.215 481.794C198.877 481.794 197.691 481.508 196.656 480.937C195.622 480.366 194.81 479.564 194.221 478.529C193.632 477.494 193.338 476.299 193.338 474.943C193.338 473.57 193.624 472.348 194.194 471.278C194.783 470.207 195.586 469.378 196.603 468.789C197.638 468.183 198.85 467.879 200.242 467.879C201.544 467.879 202.695 468.165 203.694 468.736C204.692 469.306 205.469 470.091 206.022 471.09C206.592 472.071 206.878 473.168 206.878 474.381C206.878 474.578 206.869 474.783 206.851 474.997C206.851 475.211 206.842 475.434 206.824 475.666H196.737C196.808 476.7 197.165 477.512 197.807 478.101C198.467 478.689 199.261 478.984 200.189 478.984C200.884 478.984 201.464 478.832 201.928 478.529C202.409 478.208 202.766 477.798 202.998 477.298H206.477C206.227 478.137 205.807 478.904 205.219 479.599C204.648 480.277 203.934 480.812 203.078 481.205C202.24 481.597 201.286 481.794 200.215 481.794ZM200.242 470.662C199.404 470.662 198.663 470.903 198.021 471.385C197.379 471.848 196.968 472.562 196.79 473.525H203.399C203.346 472.651 203.025 471.955 202.436 471.438C201.847 470.921 201.116 470.662 200.242 470.662Z" fill="#622F60"/>
  <path d="M214.174 481.794C212.996 481.794 211.962 481.606 211.07 481.232C210.178 480.839 209.464 480.304 208.929 479.626C208.394 478.948 208.073 478.163 207.966 477.271H211.417C211.524 477.788 211.81 478.235 212.274 478.609C212.755 478.966 213.371 479.144 214.12 479.144C214.869 479.144 215.414 478.993 215.752 478.689C216.109 478.386 216.287 478.038 216.287 477.646C216.287 477.075 216.038 476.691 215.538 476.495C215.039 476.495 214.343 476.076 213.451 475.88C212.88 475.755 212.301 475.603 211.712 475.425C211.123 475.247 210.579 475.024 210.08 474.756C209.598 474.471 209.206 474.114 208.902 473.686C208.599 473.24 208.447 472.696 208.447 472.053C208.447 470.876 208.911 469.886 209.839 469.083C210.784 468.281 212.104 467.879 213.799 467.879C215.369 467.879 216.618 468.245 217.545 468.976C218.49 469.708 219.052 470.716 219.231 472H215.993C215.797 471.019 215.056 470.528 213.772 470.528C213.13 470.528 212.631 470.653 212.274 470.903C211.935 471.153 211.766 471.465 211.766 471.839C211.766 472.232 212.024 472.544 212.541 472.776C213.059 473.008 213.745 473.222 214.602 473.418C215.529 473.632 216.376 473.873 217.144 474.141C217.929 474.39 218.553 474.774 219.017 475.291C219.481 475.791 219.712 476.513 219.712 477.459C219.73 478.279 219.516 479.019 219.07 479.68C218.624 480.339 217.982 480.857 217.144 481.232C216.305 481.606 215.315 481.794 214.174 481.794Z" fill="#622F60"/>
  <path d="M227.161 481.794C225.984 481.794 224.949 481.606 224.058 481.232C223.166 480.839 222.452 480.304 221.917 479.626C221.382 478.948 221.061 478.163 220.954 477.271H224.406C224.513 477.788 224.798 478.235 225.262 478.609C225.743 478.966 226.359 479.144 227.108 479.144C227.857 479.144 228.401 478.993 228.74 478.689C229.097 478.386 229.275 478.038 229.275 477.646C229.275 477.075 229.026 476.691 228.526 476.495C228.027 476.495 227.331 476.076 226.439 475.88C225.868 475.755 225.288 475.603 224.7 475.425C224.111 475.247 223.567 475.024 223.067 474.756C222.586 474.471 222.193 474.114 221.89 473.686C221.587 473.24 221.435 472.696 221.435 472.053C221.435 470.876 221.899 469.886 222.827 469.083C223.772 469.083 225.092 467.879 226.787 467.879C228.357 467.879 229.605 468.245 230.533 468.976C231.478 469.708 232.04 470.716 232.219 472H228.981C228.785 471.019 228.045 470.528 226.76 470.528C226.118 470.528 225.618 470.653 225.262 470.903C224.923 471.153 224.753 471.465 224.753 471.839C224.753 472.232 225.012 472.544 225.529 472.776C226.047 472.776 226.733 473.222 227.59 473.418C228.517 473.632 229.365 473.873 230.132 474.141C230.917 474.141 231.541 474.774 232.005 475.291C232.468 475.791 232.7 476.513 232.7 477.459C232.718 478.279 232.504 479.019 232.058 479.68C231.612 480.339 230.97 480.857 230.132 481.232C229.293 481.606 228.303 481.794 227.161 481.794Z" fill="#622F60"/>
</svg>
