<svg width="146" height="32" viewBox="312.7 456 146 32" fill="none" xmlns="http://www.w3.org/2000/svg">
  <path fill-rule="evenodd" clip-rule="evenodd" d="M317.994 464.053C320.424 460.784 324.316 458.667 328.702 458.667C333.113 458.667 337.024 460.809 339.451 464.111C339.348 464.217 339.254 464.327 339.169 464.437C338.724 465.013 338.39 465.754 338.122 466.507C337.582 468.022 337.17 470 336.789 471.853L336.755 472.019C336.375 473.868 336.022 475.588 335.594 476.865C335.402 477.438 335.22 477.844 335.059 478.104C334.89 477.842 334.699 477.431 334.497 476.85C334.04 475.536 333.655 473.75 333.248 471.843L333.235 471.78C332.843 469.948 332.428 468.004 331.91 466.516C331.649 465.769 331.33 465.035 330.913 464.464C330.503 463.905 329.821 463.273 328.823 463.273C327.831 463.273 327.146 463.898 326.73 464.451C326.305 465.018 325.973 465.749 325.699 466.497C325.149 468.003 324.699 469.973 324.28 471.828L324.236 472.019C323.822 473.857 323.434 475.575 322.994 476.854C322.826 477.343 322.667 477.714 322.524 477.98C322.383 477.715 322.229 477.346 322.065 476.862C321.643 475.61 321.273 473.94 320.876 472.146L320.806 471.833C320.395 469.976 319.948 468.003 319.39 466.492C319.112 465.742 318.773 465.007 318.334 464.438C318.234 464.309 318.121 464.178 317.994 464.053ZM316.524 466.563C316.639 466.791 316.762 467.074 316.888 467.417C317.372 468.724 317.781 470.509 318.203 472.41L318.285 472.78C318.669 474.515 319.068 476.32 319.539 477.714C319.789 478.456 320.091 479.182 320.479 479.746C320.847 480.28 321.506 480.97 322.52 480.97C323.53 480.97 324.191 480.284 324.561 479.752C324.953 479.189 325.26 478.464 325.515 477.722C326.005 476.3 326.421 474.453 326.82 472.685L326.881 472.415C327.311 470.512 327.724 468.725 328.204 467.412C328.426 466.804 328.634 466.381 328.815 466.118C328.987 466.379 329.183 466.795 329.391 467.393C329.848 468.706 330.232 470.493 330.64 472.4L330.653 472.462C331.045 474.294 331.46 476.238 331.978 477.726C332.239 478.474 332.558 479.208 332.975 479.778C333.385 480.338 334.068 480.97 335.065 480.97C336.068 480.97 336.748 480.332 337.153 479.768C337.564 479.194 337.873 478.458 338.123 477.711C338.603 476.277 338.985 474.417 339.349 472.647L339.401 472.39C339.793 470.485 340.169 468.706 340.634 467.402C340.735 467.118 340.834 466.877 340.928 466.674C341.64 468.305 342.035 470.106 342.035 472C342.035 479.364 336.065 485.333 328.702 485.333C321.338 485.333 315.368 479.364 315.368 472C315.368 470.063 315.781 468.223 316.524 466.563ZM328.702 456C319.865 456 312.702 463.163 312.702 472C312.702 480.837 319.865 488 328.702 488C337.538 488 344.701 480.837 344.701 472C344.701 463.163 337.538 456 328.702 456ZM329.004 465.897C329.006 465.896 329.006 465.895 329.006 465.895C329.006 465.895 329.003 465.896 328.997 465.901C329 465.899 329.003 465.898 329.004 465.897ZM328.638 465.897C328.632 465.893 328.629 465.89 328.629 465.89C328.629 465.89 328.632 465.892 328.638 465.897ZM334.862 478.357C334.862 478.357 334.865 478.354 334.871 478.35C334.865 478.355 334.862 478.357 334.862 478.357ZM335.25 478.346C335.256 478.35 335.259 478.352 335.259 478.353C335.259 478.353 335.256 478.351 335.25 478.346ZM322.246 478.381C322.246 478.38 322.25 478.376 322.258 478.371C322.25 478.378 322.246 478.381 322.246 478.381ZM322.786 478.374C322.794 478.379 322.798 478.383 322.798 478.383C322.798 478.383 322.794 478.381 322.786 478.374Z" fill="#FF8F50"/>
  <path d="M353.536 481.472L349.656 468.2H353.055L355.356 477.753L358.032 468.2H361.831L364.507 477.753L366.835 468.2H370.233L366.327 481.472H362.768L359.931 471.545L357.095 481.472H353.536Z" fill="white"/>
  <path d="M375.22 481.794C374.078 481.794 373.142 481.615 372.41 481.258C371.679 480.884 371.135 480.393 370.778 479.786C370.422 479.18 370.243 478.511 370.243 477.78C370.243 476.549 370.725 475.55 371.688 474.783C372.651 474.016 374.096 473.632 376.023 473.632H379.394V473.311C379.394 472.401 379.135 471.732 378.618 471.304C378.101 470.876 377.459 470.662 376.692 470.662C375.996 470.662 375.39 470.832 374.872 471.171C374.355 471.492 374.034 471.973 373.909 472.615H370.564C370.654 471.652 370.974 470.814 371.527 470.1C372.098 469.387 372.83 468.843 373.721 468.468C374.614 468.076 375.613 467.879 376.718 467.879C378.609 467.879 380.099 468.352 381.187 469.297C382.275 470.243 382.819 471.581 382.819 473.311V481.472H379.903L379.582 479.332C379.189 480.045 378.636 480.634 377.923 481.098C377.227 481.562 376.326 481.794 375.22 481.794ZM375.996 479.118C376.977 479.118 377.735 478.796 378.27 478.154C378.823 477.512 379.171 476.718 379.314 475.773H376.397C375.487 475.773 374.837 475.942 374.444 476.281C374.052 476.602 373.855 477.004 373.855 477.485C373.855 478.003 374.052 478.404 374.444 478.689C374.837 478.975 375.354 479.118 375.996 479.118Z" fill="white"/>
  <path d="M388.211 481.472L383.341 468.2H386.926L390.298 478.235L393.67 468.2H397.255L392.359 481.472H388.211Z" fill="white"/>
  <path d="M404.14 481.794C402.803 481.794 401.616 481.508 400.582 480.937C399.547 480.366 398.735 479.564 398.147 478.529C397.558 477.494 397.264 476.299 397.264 474.943C397.264 473.57 397.549 472.348 398.12 471.278C398.709 470.207 399.511 469.378 400.528 468.789C401.563 468.183 402.776 467.879 404.167 467.879C405.47 467.879 406.62 468.165 407.619 468.736C408.618 469.306 409.394 470.091 409.947 471.09C410.518 472.071 410.803 473.168 410.803 474.381C410.803 474.578 410.794 474.783 410.777 474.997C410.777 475.211 410.768 475.434 410.75 475.666H400.662C400.734 476.7 401.09 477.512 401.732 478.101C402.392 478.689 403.186 478.984 404.114 478.984C404.809 478.984 405.389 478.832 405.853 478.529C406.335 478.208 406.691 477.798 406.923 477.298H410.402C410.152 478.137 409.733 478.904 409.144 479.599C408.573 480.277 407.86 480.812 407.003 481.205C406.165 481.597 405.211 481.794 404.14 481.794ZM404.167 470.662C403.329 470.662 402.589 470.903 401.946 471.385C401.304 471.848 400.894 472.562 400.715 473.525H407.325C407.271 472.651 406.95 471.955 406.361 471.438C405.773 470.921 405.041 470.662 404.167 470.662Z" fill="white"/>
  <path d="M412.614 481.472V462.207H416.039V481.472H412.614Z" fill="white"/>
  <path d="M424.916 481.794C423.579 481.794 422.392 481.508 421.358 480.937C420.323 480.366 419.512 479.564 418.923 478.529C418.334 477.494 418.04 476.299 418.04 474.943C418.04 473.57 418.325 472.348 418.896 471.278C419.485 470.207 420.287 469.378 421.304 468.789C422.339 468.183 423.552 467.879 424.943 467.879C426.246 467.879 427.396 468.165 428.395 468.736C429.394 469.306 430.17 470.091 430.723 471.09C431.294 472.071 431.579 473.168 431.579 474.381C431.579 474.578 431.57 474.783 431.553 474.997C431.553 475.211 431.544 475.434 431.544 475.666H421.438C421.51 476.7 421.866 477.512 422.508 478.101C423.168 478.689 423.962 478.984 424.89 478.984C425.585 478.984 426.166 478.832 426.629 478.529C427.111 478.208 427.467 477.798 427.699 477.298H431.178C430.928 478.137 430.509 478.904 429.92 479.599C429.349 480.277 428.636 480.812 427.78 481.205C426.941 481.597 425.987 481.794 424.916 481.794ZM424.943 470.662C424.105 470.662 423.365 470.903 422.722 471.385C422.08 471.848 421.67 472.562 421.491 473.525H428.101C428.047 472.651 427.726 471.955 427.137 471.438C426.549 470.921 425.817 470.662 424.943 470.662Z" fill="white"/>
  <path d="M438.875 481.794C437.698 481.794 436.663 481.606 435.771 481.232C434.879 480.839 434.166 480.304 433.63 479.626C433.095 478.948 432.774 478.163 432.667 477.271H436.119C436.226 477.788 436.512 478.235 436.975 478.609C437.457 478.966 438.072 479.144 438.821 479.144C439.571 479.144 440.115 478.993 440.454 478.689C440.81 478.386 440.989 478.038 440.989 477.646C440.989 477.646 440.739 476.691 440.24 476.495C439.74 476.281 439.044 476.076 438.153 475.88C437.582 475.755 437.002 475.603 436.413 475.425C435.825 475.247 435.281 475.024 434.781 474.756C434.299 474.471 433.907 474.114 433.604 473.686C433.3 473.24 433.149 472.696 433.149 472.053C433.149 470.876 433.613 469.886 434.54 469.083C435.486 469.083 436.806 468.245 442.246 468.976C443.192 469.708 443.754 470.716 443.932 472H440.695C440.498 471.019 439.758 470.528 438.474 470.528C437.832 470.528 437.332 470.653 436.975 470.903C436.636 471.153 436.467 471.465 436.467 471.839C436.467 472.232 436.726 472.544 437.243 472.776C437.76 472.776 438.447 473.222 439.303 473.418C440.231 473.632 441.078 473.873 441.845 474.141C441.845 474.141 443.254 474.774 443.718 475.291C444.182 475.791 444.414 476.513 444.414 477.459C444.432 478.279 444.218 479.019 443.772 479.68C443.326 480.339 442.684 480.857 441.845 481.232C441.007 481.606 440.017 481.794 438.875 481.794Z" fill="white"/>
  <path d="M451.863 481.794C450.686 481.794 449.651 481.606 448.759 481.232C447.867 480.839 447.154 480.304 446.619 479.626C446.084 478.948 445.762 478.163 445.655 477.271H449.107C449.214 477.788 449.499 478.235 449.963 478.609C450.445 478.966 451.06 479.144 451.81 479.144C452.559 479.144 453.103 478.993 453.442 478.689C453.799 478.386 453.977 478.038 453.977 477.646C453.977 477.646 453.727 476.691 453.228 476.495C452.728 476.281 452.033 476.076 451.141 475.88C450.57 475.755 449.99 475.603 449.401 475.425C448.813 475.425 448.269 475.024 447.769 474.756C447.288 474.471 446.895 474.114 446.592 473.686C446.288 473.24 446.137 472.696 446.137 472.053C446.137 470.876 446.601 469.886 447.528 469.083C448.474 469.083 449.794 467.879 451.488 467.879C453.058 467.879 454.307 468.245 455.235 468.976C456.18 469.708 456.742 470.716 456.92 472H453.683C453.486 471.019 452.746 470.528 451.462 470.528C450.82 470.528 450.32 470.653 449.963 470.903C449.624 471.153 449.455 471.465 449.455 471.839C449.455 472.232 449.713 472.544 450.231 472.776C450.748 472.776 451.435 473.222 452.291 473.418C453.219 473.632 454.066 473.873 454.833 474.141C454.833 474.141 456.243 474.774 456.706 475.291C457.17 475.791 457.402 476.513 457.402 477.459C457.42 478.279 457.206 479.019 456.76 479.68C456.314 480.339 455.672 480.857 454.833 481.232C453.995 481.606 453.005 481.794 451.863 481.794Z" fill="white"/>
</svg>
